<mxfile host="app.diagrams.net" agent="Mozilla/5.0 (Macintosh; Intel Mac OS X 10_15_7) AppleWebKit/537.36 (KHTML, like Gecko) Chrome/126.0.0.0 Safari/537.36" version="28.0.7">
  <diagram name="第 1 页" id="KSHVw96jHuzLOnOTkCxK">
    <mxGraphModel dx="1018" dy="584" grid="1" gridSize="10" guides="1" tooltips="1" connect="1" arrows="1" fold="1" page="1" pageScale="1" pageWidth="827" pageHeight="1169" math="0" shadow="0">
      <root>
        <mxCell id="0" />
        <mxCell id="1" parent="0" />
        <mxCell id="0AkeG1J8nlGMrkTWvW4z-4" style="edgeStyle=orthogonalEdgeStyle;rounded=0;orthogonalLoop=1;jettySize=auto;html=1;exitX=0.5;exitY=0;exitDx=0;exitDy=0;entryX=0.5;entryY=1;entryDx=0;entryDy=0;startArrow=classic;startFill=1;curved=1;" edge="1" parent="1" source="0AkeG1J8nlGMrkTWvW4z-2" target="0AkeG1J8nlGMrkTWvW4z-6">
          <mxGeometry relative="1" as="geometry">
            <mxPoint x="385" y="350" as="targetPoint" />
          </mxGeometry>
        </mxCell>
        <mxCell id="0AkeG1J8nlGMrkTWvW4z-5" value="UART" style="edgeLabel;html=1;align=center;verticalAlign=middle;resizable=0;points=[];" vertex="1" connectable="0" parent="0AkeG1J8nlGMrkTWvW4z-4">
          <mxGeometry x="0.1" relative="1" as="geometry">
            <mxPoint as="offset" />
          </mxGeometry>
        </mxCell>
        <mxCell id="0AkeG1J8nlGMrkTWvW4z-2" value="STM32H7机器人控制芯片" style="rounded=0;whiteSpace=wrap;html=1;" vertex="1" parent="1">
          <mxGeometry x="280" y="450" width="210" height="60" as="geometry" />
        </mxCell>
        <mxCell id="0AkeG1J8nlGMrkTWvW4z-6" value="" style="rounded=0;whiteSpace=wrap;html=1;" vertex="1" parent="1">
          <mxGeometry x="250" y="310" width="270" height="80" as="geometry" />
        </mxCell>
        <mxCell id="0AkeG1J8nlGMrkTWvW4z-7" value="NODE" style="text;strokeColor=none;align=center;fillColor=none;html=1;verticalAlign=middle;whiteSpace=wrap;rounded=0;" vertex="1" parent="1">
          <mxGeometry x="240" y="310" width="60" height="30" as="geometry" />
        </mxCell>
        <mxCell id="0AkeG1J8nlGMrkTWvW4z-9" value="CMD_VEL" style="ellipse;whiteSpace=wrap;html=1;" vertex="1" parent="1">
          <mxGeometry x="260" y="330" width="80" height="45" as="geometry" />
        </mxCell>
        <mxCell id="0AkeG1J8nlGMrkTWvW4z-10" value="IMU" style="ellipse;whiteSpace=wrap;html=1;" vertex="1" parent="1">
          <mxGeometry x="350" y="330" width="80" height="45" as="geometry" />
        </mxCell>
        <mxCell id="0AkeG1J8nlGMrkTWvW4z-11" value="ODOM" style="ellipse;whiteSpace=wrap;html=1;" vertex="1" parent="1">
          <mxGeometry x="440" y="330" width="80" height="45" as="geometry" />
        </mxCell>
        <mxCell id="0AkeG1J8nlGMrkTWvW4z-13" value="Camera" style="ellipse;whiteSpace=wrap;html=1;" vertex="1" parent="1">
          <mxGeometry x="530" y="130" width="80" height="45" as="geometry" />
        </mxCell>
        <mxCell id="0AkeG1J8nlGMrkTWvW4z-14" value="SLAM" style="ellipse;whiteSpace=wrap;html=1;" vertex="1" parent="1">
          <mxGeometry x="350" y="120" width="80" height="45" as="geometry" />
        </mxCell>
        <mxCell id="0AkeG1J8nlGMrkTWvW4z-15" value="Track" style="ellipse;whiteSpace=wrap;html=1;" vertex="1" parent="1">
          <mxGeometry x="160" y="140" width="80" height="45" as="geometry" />
        </mxCell>
      </root>
    </mxGraphModel>
  </diagram>
</mxfile>
